<svg width="640" height="480" viewBox="0 0 640 480" fill="none" xmlns="http://www.w3.org/2000/svg">
  <rect width="640" height="480" rx="24" fill="#F1F5F9"/>
  <rect x="148" y="160" width="344" height="160" rx="18" fill="#475569"/>
  <rect x="188" y="196" width="264" height="88" rx="12" fill="#E2E8F0"/>
  <g fill="#14B8A6">
    <rect x="172" y="118" width="18" height="56" rx="4"/>
    <rect x="212" y="118" width="18" height="56" rx="4"/>
    <rect x="252" y="118" width="18" height="56" rx="4"/>
    <rect x="292" y="118" width="18" height="56" rx="4"/>
    <rect x="332" y="118" width="18" height="56" rx="4"/>
    <rect x="372" y="118" width="18" height="56" rx="4"/>
    <rect x="412" y="118" width="18" height="56" rx="4"/>
    <rect x="452" y="118" width="18" height="56" rx="4"/>
    <rect x="172" y="306" width="18" height="56" rx="4"/>
    <rect x="212" y="306" width="18" height="56" rx="4"/>
    <rect x="252" y="306" width="18" height="56" rx="4"/>
    <rect x="292" y="306" width="18" height="56" rx="4"/>
    <rect x="332" y="306" width="18" height="56" rx="4"/>
    <rect x="372" y="306" width="18" height="56" rx="4"/>
    <rect x="412" y="306" width="18" height="56" rx="4"/>
    <rect x="452" y="306" width="18" height="56" rx="4"/>
  </g>
  <text x="320" y="410" text-anchor="middle" font-family="Arial" font-size="28" font-weight="700" fill="#0F172A">Precision Connector</text>
</svg>
