<svg width="640" height="480" viewBox="0 0 640 480" fill="none" xmlns="http://www.w3.org/2000/svg">
  <rect width="640" height="480" rx="24" fill="#EEF2F7"/>
  <rect x="118" y="142" width="404" height="196" rx="22" fill="#94A3B8"/>
  <rect x="166" y="188" width="308" height="104" rx="50" fill="#111827"/>
  <rect x="214" y="216" width="212" height="48" rx="24" fill="#F8FAFC"/>
  <g fill="#0D9488">
    <rect x="150" y="116" width="14" height="44" rx="3"/>
    <rect x="180" y="116" width="14" height="44" rx="3"/>
    <rect x="210" y="116" width="14" height="44" rx="3"/>
    <rect x="240" y="116" width="14" height="44" rx="3"/>
    <rect x="270" y="116" width="14" height="44" rx="3"/>
    <rect x="300" y="116" width="14" height="44" rx="3"/>
    <rect x="330" y="116" width="14" height="44" rx="3"/>
    <rect x="360" y="116" width="14" height="44" rx="3"/>
    <rect x="390" y="116" width="14" height="44" rx="3"/>
    <rect x="420" y="116" width="14" height="44" rx="3"/>
    <rect x="450" y="116" width="14" height="44" rx="3"/>
    <rect x="480" y="116" width="14" height="44" rx="3"/>
  </g>
  <text x="320" y="388" text-anchor="middle" font-family="Arial" font-size="28" font-weight="700" fill="#0F172A">24 Pin Mid-Mount</text>
</svg>
