<svg width="640" height="480" viewBox="0 0 640 480" fill="none" xmlns="http://www.w3.org/2000/svg">
  <rect width="640" height="480" rx="24" fill="#E8EEF2"/>
  <rect x="140" y="160" width="360" height="160" rx="28" fill="#CBD5E1"/>
  <rect x="180" y="195" width="280" height="90" rx="42" fill="#0F172A"/>
  <rect x="220" y="218" width="200" height="44" rx="22" fill="#F8FAFC"/>
  <g fill="#14B8A6">
    <rect x="165" y="132" width="18" height="48" rx="4"/>
    <rect x="205" y="132" width="18" height="48" rx="4"/>
    <rect x="245" y="132" width="18" height="48" rx="4"/>
    <rect x="285" y="132" width="18" height="48" rx="4"/>
    <rect x="325" y="132" width="18" height="48" rx="4"/>
    <rect x="365" y="132" width="18" height="48" rx="4"/>
    <rect x="405" y="132" width="18" height="48" rx="4"/>
    <rect x="445" y="132" width="18" height="48" rx="4"/>
  </g>
  <text x="320" y="380" text-anchor="middle" font-family="Arial" font-size="28" font-weight="700" fill="#0F172A">16 Pin SMT</text>
</svg>
